
<svg xmlns="http://www.w3.org/2000/svg" width="1440" height="800" viewBox="0 0 1440 800" fill="none">
  <path opacity="0.05" d="M0 0H1440V800H0V0Z" fill="url(#paint0_linear_1_2)"/>
  <g opacity="0.1">
    <path d="M190.5 307C239.9 307 280 266.9 280 217.5C280 168.1 239.9 128 190.5 128C141.1 128 101 168.1 101 217.5C101 266.9 141.1 307 190.5 307Z" fill="#8B5CF6"/>
    <path d="M1249.5 658C1298.9 658 1339 617.9 1339 568.5C1339 519.1 1298.9 479 1249.5 479C1200.1 479 1160 519.1 1160 568.5C1160 617.9 1200.1 658 1249.5 658Z" fill="#3B82F6"/>
    <path d="M1051.5 176C1069.45 176 1084 161.45 1084 143.5C1084 125.55 1069.45 111 1051.5 111C1033.55 111 1019 125.55 1019 143.5C1019 161.45 1033.55 176 1051.5 176Z" fill="#8B5CF6"/>
    <path d="M276.5 665C294.45 665 309 650.45 309 632.5C309 614.55 294.45 600 276.5 600C258.55 600 244 614.55 244 632.5C244 650.45 258.55 665 276.5 665Z" fill="#3B82F6"/>
  </g>
  <defs>
    <linearGradient id="paint0_linear_1_2" x1="720" y1="0" x2="720" y2="800" gradientUnits="userSpaceOnUse">
      <stop stop-color="#3B82F6"/>
      <stop offset="1" stop-color="#8B5CF6"/>
    </linearGradient>
  </defs>
</svg>
